<?xml version="1.0" standalone="no"?>
<!DOCTYPE svg PUBLIC "-//W3C//DTD SVG 20010904//EN"
 "http://www.w3.org/TR/2001/REC-SVG-20010904/DTD/svg10.dtd">
<svg version="1.0" xmlns="http://www.w3.org/2000/svg"
 width="1257.000000pt" height="1257.000000pt" viewBox="0 0 1257.000000 1257.000000"
 preserveAspectRatio="xMidYMid meet">
<metadata>
Created by potrace 1.11, written by Peter Selinger 2001-2013
</metadata>
<g transform="translate(0.000000,1257.000000) scale(0.100000,-0.100000)"
fill="#000000" stroke="none">
<path d="M6154 12356 c-120 -73 -264 -160 -319 -194 -55 -33 -180 -109 -277
-168 -98 -58 -185 -112 -194 -118 -14 -10 46 -51 387 -261 222 -137 460 -283
528 -326 l125 -76 45 27 c51 30 328 199 404 246 26 16 166 101 312 189 146 88
265 163 265 167 0 5 -64 46 -330 209 -74 45 -422 255 -445 269 -16 9 -78 47
-136 83 -58 35 -115 70 -126 75 -17 10 -53 -9 -239 -122z"/>
<path d="M4999 11656 c-19 -13 -53 -34 -76 -47 -60 -34 -926 -561 -936 -569
-11 -10 10 -23 556 -355 327 -198 494 -294 505 -290 10 3 81 45 160 93 78 48
150 92 160 97 9 6 176 106 369 224 346 210 352 214 330 230 -12 10 -204 129
-427 266 -223 137 -451 277 -506 311 l-101 63 -34 -23z"/>
<path d="M7590 11556 c-184 -113 -347 -211 -405 -246 -24 -14 -138 -83 -255
-155 l-212 -129 27 -22 c15 -12 43 -30 64 -41 20 -11 110 -66 201 -123 91 -56
217 -134 280 -173 63 -39 181 -111 263 -161 226 -140 239 -147 247 -144 20 8
1040 624 1040 628 0 4 -125 82 -185 116 -11 6 -92 55 -180 109 -364 223 -716
435 -723 435 -4 0 -77 -43 -162 -94z"/>
<path d="M3142 10527 c-571 -348 -527 -310 -431 -368 62 -38 317 -196 359
-224 19 -12 132 -82 250 -155 118 -74 245 -153 282 -177 37 -24 71 -43 75 -43
4 1 62 34 128 75 66 40 163 99 215 131 178 106 475 287 588 357 90 56 111 72
100 82 -7 6 -231 144 -498 305 -267 161 -497 302 -512 312 -14 10 -30 18 -35
18 -4 0 -239 -141 -521 -313z"/>
<path d="M5975 10575 c-231 -141 -466 -284 -522 -317 -56 -34 -101 -63 -100
-64 1 -1 85 -53 187 -115 102 -61 289 -175 415 -252 315 -192 404 -246 442
-269 l33 -20 137 82 c76 45 167 99 202 121 34 21 66 39 69 39 3 0 13 6 21 14
9 7 36 25 61 39 111 62 545 328 548 336 2 6 -400 261 -556 352 -15 9 -133 82
-263 162 -131 81 -241 147 -245 147 -5 0 -198 -115 -429 -255z"/>
<path d="M8867 10625 c-158 -96 -290 -175 -293 -175 -3 0 -20 -11 -38 -25 -18
-14 -36 -25 -40 -25 -4 0 -31 -15 -59 -34 -29 -18 -115 -71 -191 -116 -156
-93 -151 -81 -60 -135 18 -11 205 -126 414 -255 560 -346 539 -334 564 -321
28 16 52 30 111 67 88 55 254 158 515 319 140 87 288 178 328 202 l73 46 -78
47 c-182 111 -730 444 -755 459 -15 9 -66 40 -113 69 -48 28 -87 52 -88 52 -1
0 -132 -79 -290 -175z"/>
<path d="M2050 9864 c-140 -85 -393 -239 -562 -341 -169 -102 -305 -189 -303
-194 3 -4 68 -45 145 -91 77 -45 153 -91 168 -100 15 -10 36 -22 47 -27 11 -5
106 -62 210 -125 105 -64 196 -119 204 -123 8 -3 77 -44 153 -90 l139 -83 77
47 c42 25 192 116 332 201 140 85 266 162 280 172 14 9 30 19 35 21 27 10 385
233 385 239 0 4 -7 10 -15 13 -8 4 -81 48 -162 100 -121 76 -357 224 -603 377
-167 104 -260 160 -267 160 -4 0 -123 -70 -263 -156z"/>
<path d="M4735 9822 c-159 -98 -389 -237 -510 -311 -121 -73 -224 -136 -228
-141 -7 -6 167 -121 367 -243 32 -20 269 -168 301 -189 17 -10 109 -68 205
-128 l174 -108 26 17 c14 10 30 20 35 22 11 4 141 82 515 309 135 82 300 181
368 221 67 40 122 76 122 79 0 3 -53 37 -117 76 -114 68 -456 276 -787 477
-87 54 -163 97 -170 96 -6 0 -141 -80 -301 -177z"/>
<path d="M10289 9854 c-603 -374 -829 -516 -829 -523 0 -5 8 -12 18 -16 23 -9
677 -409 744 -456 15 -11 31 -19 36 -19 5 0 26 -13 48 -30 21 -16 42 -30 46
-30 4 0 26 -13 50 -29 24 -15 63 -40 88 -54 l46 -26 199 119 c109 66 200 120
201 120 2 0 46 27 99 60 53 33 97 60 99 60 1 0 76 45 167 100 90 55 192 115
226 135 34 19 64 39 67 43 5 9 -40 37 -469 297 -170 103 -326 198 -345 210
-19 13 -57 37 -85 53 -27 16 -80 48 -117 71 -37 22 -71 41 -76 41 -5 0 -100
-57 -213 -126z"/>
<path d="M3405 9014 c-137 -85 -257 -157 -265 -161 -8 -3 -22 -12 -30 -18 -8
-7 -34 -24 -56 -36 -23 -13 -141 -85 -263 -159 -170 -103 -218 -137 -209 -146
11 -9 342 -209 373 -224 6 -3 162 -96 348 -208 l339 -202 544 326 c517 311
543 328 523 342 -12 8 -220 139 -463 291 -242 153 -467 294 -499 314 -31 20
-65 37 -75 36 -9 0 -129 -70 -267 -155z"/>
<path d="M6280 9070 c-156 -95 -596 -359 -665 -400 -130 -77 -255 -155 -255
-160 0 -4 800 -509 924 -583 11 -7 46 -29 78 -49 l59 -37 82 53 c45 29 96 60
112 70 17 9 80 47 140 85 61 38 164 102 230 142 66 41 125 78 132 84 7 5 93
60 193 120 99 61 180 112 180 115 0 3 -57 40 -127 83 -71 42 -196 118 -280
169 -84 51 -259 158 -390 238 -131 80 -245 148 -253 151 -10 4 -69 -26 -160
-81z"/>
<path d="M8835 8955 c-165 -102 -393 -243 -507 -313 -114 -69 -204 -130 -200
-134 5 -5 919 -564 1053 -644 5 -3 244 135 339 196 8 5 87 52 175 105 359 216
526 317 523 320 -2 1 -57 35 -123 75 -66 40 -136 83 -155 95 -102 67 -789 485
-796 485 -5 0 -144 -84 -309 -185z"/>
<path d="M1023 7665 c0 -757 3 -1374 6 -1373 6 3 263 157 1533 921 90 54 169
101 175 105 9 6 3 24 -24 67 -19 33 -104 179 -188 325 -84 146 -203 352 -264
457 -61 106 -111 196 -111 200 0 7 -282 179 -389 238 -21 11 -59 34 -87 52
-78 49 -642 383 -647 383 -2 0 -4 -619 -4 -1375z"/>
<path d="M11573 8917 c-186 -112 -670 -403 -728 -437 -23 -14 -72 -43 -109
-65 l-66 -39 -1 -56 c-3 -127 -17 -377 -24 -445 -2 -22 -7 -71 -10 -110 -3
-38 -8 -83 -10 -100 -2 -16 -7 -61 -10 -98 -4 -37 -8 -78 -10 -89 -3 -12 -9
-58 -15 -102 -19 -142 -26 -185 -40 -266 -6 -30 -13 -68 -15 -85 -72 -407
-191 -879 -312 -1234 -14 -41 -26 -82 -28 -91 -4 -18 111 -93 226 -148 76 -36
225 -87 284 -96 39 -6 41 -5 73 44 17 27 32 52 32 55 0 10 141 216 228 335
154 208 274 345 512 581 l177 176 0 1182 c0 649 0 1181 -1 1181 0 -1 -70 -42
-153 -93z"/>
<path d="M4500 7999 c-294 -176 -536 -322 -538 -324 -2 -2 209 -130 470 -285
260 -155 484 -290 498 -300 14 -9 51 -31 83 -49 l58 -32 37 22 c20 12 60 37
87 54 76 49 287 179 307 190 71 39 609 377 606 380 -2 1 -149 94 -328 205
-179 112 -347 217 -375 235 -99 64 -361 225 -366 225 -2 0 -245 -144 -539
-321z"/>
<path d="M7320 8019 c-267 -165 -509 -314 -538 -331 -43 -25 -51 -33 -40 -43
17 -16 990 -623 1011 -631 10 -3 176 90 464 264 247 149 467 280 488 292 22
12 47 27 55 34 8 7 32 21 53 31 21 11 42 25 47 30 6 7 -81 65 -237 160 -306
187 -312 191 -343 208 -14 8 -88 53 -165 100 -188 115 -306 187 -308 187 -1
-1 -220 -136 -487 -301z"/>
<path d="M9849 7880 c-266 -159 -488 -291 -492 -293 -8 -2 -10 -221 -3 -267 3
-14 8 -52 11 -85 11 -93 21 -163 31 -205 2 -8 10 -44 18 -80 47 -214 187 -563
277 -692 11 -14 19 -29 19 -33 0 -21 206 -294 214 -283 3 4 17 50 81 268 71
245 114 418 181 735 32 154 93 545 109 699 3 33 8 73 10 90 2 17 7 63 10 101
3 39 8 93 10 120 11 130 15 215 11 215 -2 0 -221 -130 -487 -290z"/>
<path d="M3415 7346 c-121 -73 -219 -138 -218 -143 2 -10 194 -344 543 -948
70 -121 195 -338 278 -482 173 -301 175 -303 182 -303 4 0 55 96 115 213 59
116 145 284 190 372 176 341 356 698 353 700 -12 12 -1212 725 -1219 725 -2
-1 -103 -61 -224 -134z"/>
<path d="M5905 7145 c-280 -173 -511 -318 -512 -322 -2 -6 211 -137 456 -279
20 -12 145 -87 279 -168 134 -80 246 -146 249 -146 4 0 14 -7 24 -16 17 -15
51 3 531 291 282 170 514 309 515 310 5 3 -997 632 -1020 641 -7 2 -241 -138
-522 -311z"/>
<path d="M8840 7275 c-96 -58 -182 -109 -190 -114 -8 -5 -167 -101 -353 -212
-186 -111 -342 -209 -346 -218 -9 -18 -7 -963 3 -1306 9 -296 22 -593 31 -710
2 -27 7 -88 10 -135 8 -121 23 -297 30 -355 2 -16 6 -55 9 -85 4 -30 8 -73 11
-95 13 -112 17 -142 20 -165 2 -14 6 -50 10 -80 3 -30 10 -80 15 -110 5 -30
12 -77 16 -105 3 -27 8 -59 10 -70 2 -11 13 -74 24 -140 11 -66 22 -131 25
-145 58 -294 51 -272 77 -240 11 14 41 48 66 75 26 28 57 64 70 80 13 17 38
46 56 65 97 107 357 456 497 668 61 92 120 179 130 194 10 15 19 29 19 32 0 2
31 55 69 118 211 350 424 782 587 1196 35 89 64 166 64 170 0 4 -19 26 -41 47
-102 97 -237 271 -336 433 -173 286 -308 649 -359 972 -2 14 -6 39 -9 55 -13
81 -23 185 -24 243 -1 23 -4 42 -8 42 -5 0 -87 -47 -183 -105z"/>
<path d="M2165 6596 c-407 -244 -831 -499 -941 -565 l-201 -120 0 -1326 -1
-1326 52 -34 c28 -18 155 -96 281 -172 127 -77 325 -198 440 -268 116 -71 219
-133 230 -139 11 -6 31 -19 45 -28 20 -13 479 -292 501 -304 4 -2 35 51 69
119 35 67 93 181 130 252 37 72 107 207 155 300 48 94 120 233 160 310 40 77
112 217 160 310 48 94 116 224 150 290 59 115 138 267 334 648 48 94 134 260
190 368 55 108 101 201 101 206 0 6 -25 52 -55 102 -30 51 -55 93 -55 95 0 2
-37 66 -81 142 -84 142 -103 175 -147 254 -33 58 -259 450 -271 470 -6 8 -34
58 -64 110 -30 52 -132 230 -227 395 -96 165 -181 312 -189 327 -9 16 -18 28
-21 28 -3 0 -339 -200 -745 -444z"/>
<path d="M5119 6548 c-39 -77 -239 -468 -339 -663 -214 -415 -305 -594 -345
-674 l-42 -84 69 -121 c39 -67 87 -150 108 -186 104 -177 307 -530 483 -835
107 -187 227 -396 267 -465 40 -69 82 -141 93 -160 11 -19 78 -136 150 -260
71 -124 141 -245 155 -270 14 -25 71 -124 127 -220 56 -96 164 -283 240 -415
76 -132 144 -249 151 -260 12 -16 14 296 14 1986 l0 2006 -517 309 c-284 170
-521 311 -527 313 -6 2 -23 12 -38 23 l-27 19 -22 -43z"/>
<path d="M7140 6253 c-261 -157 -495 -298 -520 -313 l-45 -26 0 -2142 -1
-2141 36 21 c62 38 275 172 285 180 6 5 26 19 45 31 248 163 578 422 828 652
158 144 184 173 178 193 -4 11 -9 29 -11 39 -2 10 -10 50 -19 88 -9 39 -18 81
-20 95 -3 14 -14 70 -25 125 -11 55 -23 116 -26 135 -18 100 -54 321 -60 360
-3 25 -8 56 -11 70 -2 14 -6 43 -9 65 -6 57 -14 121 -24 190 -9 55 -12 84 -27
225 -2 25 -6 65 -9 90 -10 95 -15 147 -20 210 -3 36 -7 85 -10 110 -2 25 -7
90 -10 145 -3 55 -7 125 -10 155 -4 49 -10 187 -20 440 -2 47 -7 355 -11 685
-3 330 -7 601 -8 602 -1 1 -215 -127 -476 -284z"/>
<path d="M10040 5288 c-234 -593 -545 -1173 -921 -1718 -52 -76 -270 -368
-307 -411 -11 -13 -68 -81 -126 -151 -101 -121 -317 -361 -362 -402 l-22 -20
45 -170 c39 -151 94 -342 177 -613 13 -44 48 -148 76 -230 29 -81 54 -156 57
-165 4 -13 39 4 186 94 100 61 196 119 212 128 28 16 261 158 295 180 8 5 33
20 55 33 33 20 255 155 453 276 l42 26 1 100 c0 55 2 118 4 140 2 21 6 91 10
155 3 63 8 131 10 150 2 19 6 67 10 105 10 109 14 148 35 305 11 85 13 99 41
270 69 429 245 1057 384 1375 7 17 27 64 45 105 18 41 55 122 82 180 27 58 50
108 51 113 1 4 -50 25 -114 46 -117 40 -259 104 -336 154 -24 15 -44 27 -46
27 -2 0 -19 -37 -37 -82z"/>
<path d="M11575 5209 c-204 -70 -359 -99 -555 -104 l-95 -2 -25 -44 c-49 -86
-200 -412 -200 -433 0 -7 -3 -16 -7 -20 -31 -31 -211 -577 -259 -788 -2 -10
-6 -26 -8 -35 -31 -123 -97 -449 -110 -543 -15 -109 -19 -137 -21 -151 -2 -9
-8 -61 -15 -115 -6 -55 -13 -109 -15 -120 -2 -12 -6 -61 -10 -110 -4 -49 -9
-104 -11 -124 -10 -123 -15 -272 -8 -268 60 32 440 265 442 271 2 4 7 7 11 7
8 0 123 69 709 425 l330 200 -1 1002 c0 552 -2 1002 -6 1002 -3 -1 -69 -23
-146 -50z"/>
<path d="M4121 4598 c-52 -101 -120 -232 -151 -293 -32 -60 -108 -209 -170
-330 -62 -121 -136 -265 -165 -320 -29 -55 -90 -172 -135 -260 -113 -218 -210
-406 -455 -880 -43 -82 -102 -197 -131 -253 -30 -57 -54 -109 -54 -116 0 -7
12 -18 28 -25 15 -7 43 -23 62 -36 19 -12 238 -146 485 -295 248 -150 488
-297 535 -325 47 -29 225 -137 395 -240 516 -313 804 -488 919 -558 59 -37
110 -67 113 -67 2 0 16 -9 31 -19 23 -16 338 -209 427 -261 17 -10 112 -68
213 -129 l182 -111 0 592 0 591 -154 266 c-218 376 -588 1018 -618 1071 -14
25 -58 101 -98 170 -40 69 -81 140 -91 158 -11 18 -102 176 -203 350 -100 174
-194 337 -208 362 -14 25 -144 250 -288 500 -145 250 -270 468 -280 485 -40
70 -91 155 -93 155 -2 0 -45 -82 -96 -182z"/>
<path d="M7995 2283 c-22 -19 -56 -49 -75 -66 -19 -18 -66 -59 -105 -92 -38
-33 -72 -63 -75 -66 -11 -12 -253 -201 -366 -286 -98 -72 -426 -294 -519 -350
-11 -7 -79 -47 -151 -89 l-130 -77 0 -564 c0 -386 3 -562 11 -559 5 2 294 176
640 386 512 312 1113 676 1147 696 8 5 7 8 -100 324 -76 225 -153 479 -206
679 -14 51 -27 95 -28 97 -2 1 -21 -13 -43 -33z"/>
</g>
</svg>
